<svg width="24" height="24" viewBox="0 0 24 24" fill="none" xmlns="http://www.w3.org/2000/svg">
<path d="M14.9049 10.623C15.3715 9.24903 16.4774 7.52537 17.9034 7.12568C18.6639 6.9096 19.5826 6.97955 20.1307 7.64028C20.4906 8.06995 20.6333 8.77689 20.2051 9.2228C19.8201 9.62373 19.3115 9.42264 19.1256 8.94926C18.7994 8.10617 18.8762 7.09821 19.1364 6.25137C19.663 4.5427 21.2678 3.44356 22.9577 3.41733C24.3454 3.3961 24.349 1.14785 22.9577 1.16909C20.7184 1.20406 18.5343 2.47182 17.4908 4.57018C16.5577 6.44372 16.1955 9.96846 18.2465 11.255C20.2974 12.5415 22.7454 10.7029 22.6135 8.32849C22.466 5.66807 19.7913 4.38408 17.5196 4.90742C15.2288 5.43575 13.5616 7.84137 12.824 10.0284C12.3598 11.4023 14.4456 11.9831 14.9049 10.6267V10.623Z" fill="#FF50AA"/>
<path d="M3.93762 3.3324C5.47285 3.5822 6.9865 4.2192 7.9868 5.50695C8.88395 6.6623 9.23057 8.3897 8.5865 9.75363C7.976 11.0514 9.83747 12.1917 10.4528 10.8915C10.9276 9.86517 11.1275 8.72441 11.0314 7.5896C10.9354 6.45479 10.5469 5.36803 9.90703 4.44403C8.63687 2.61546 6.63387 1.50507 4.50973 1.16534C3.93402 1.07291 3.34871 1.31647 3.182 1.94973C3.04167 2.48306 3.35591 3.23997 3.93522 3.3324H3.93762Z" fill="#FF50AA"/>
<path d="M1.8171 20.4103L6.78502 9.48634C7.07861 8.83301 7.564 8.29375 8.17109 7.94644C8.77818 7.59913 9.47556 7.46173 10.1625 7.55409C11.8021 7.78516 13.5832 8.88181 14.9074 10.4269C16.3167 12.0718 17.227 14.2126 17.257 16.0624C17.2615 16.8465 17.0083 17.6086 16.5394 18.222C16.0705 18.8355 15.4142 19.2635 14.6795 19.4348L3.19761 22.2051C2.97302 22.2579 2.7387 22.2439 2.52139 22.1647C2.30408 22.0855 2.11253 21.9443 1.9686 21.7571C1.82466 21.57 1.73413 21.3445 1.70735 21.1063C1.68056 20.8682 1.71859 20.627 1.8171 20.4103Z" fill="#FFC2E2"/>
<mask id="mask0_17_2" style="mask-type:luminance" maskUnits="userSpaceOnUse" x="1" y="7" width="17" height="16">
<path d="M1.8171 20.4103L6.78502 9.48634C7.07861 8.83301 7.564 8.29375 8.17109 7.94644C8.77818 7.59913 9.47556 7.46173 10.1625 7.55409C11.8021 7.78516 13.5832 8.88181 14.9074 10.4269C16.3167 12.0718 17.227 14.2126 17.257 16.0624C17.2615 16.8465 17.0083 17.6086 16.5394 18.222C16.0705 18.8355 15.4142 19.2635 14.6795 19.4348L3.19761 22.2051C2.97302 22.2579 2.7387 22.2439 2.52139 22.1647C2.30408 22.0855 2.11253 21.9443 1.9686 21.7571C1.82466 21.57 1.73413 21.3445 1.70735 21.1063C1.68056 20.8682 1.71859 20.627 1.8171 20.4103Z" fill="white"/>
</mask>
<g mask="url(#mask0_17_2)">
<path d="M2.00181 18.944C2.98412 17.0367 5.60001 17.0117 7.29476 17.7374C9.54124 18.6941 10.484 20.9599 11.29 23.1744C11.4963 23.7415 12.018 24.1311 12.6177 23.96C13.1394 23.8101 13.5772 23.1469 13.3709 22.5761C12.8168 21.0511 12.2495 19.5148 11.29 18.2045C10.3794 16.9719 9.14735 16.0383 7.74094 15.5154C5.14304 14.5274 1.55323 15.0607 0.137942 17.8098C-0.51813 19.0838 1.34454 20.2217 2.00181 18.944Z" fill="#FF50AA"/>
<path d="M3.64378 13.6343C5.62998 11.4411 8.81199 11.9706 11.0657 13.3983C12.1197 14.0824 13.0246 14.9887 13.7223 16.0587C14.322 16.9642 14.8738 18.0372 14.8702 19.1326C14.863 20.5802 17.0219 20.5814 17.0291 19.1326C17.0423 15.985 14.4947 12.8674 12.0072 11.3649C8.94033 9.51257 4.73163 9.1566 2.11814 12.0506C1.15862 13.1023 2.68905 14.696 3.64378 13.6406V13.6343Z" fill="#FF50AA"/>
</g>
<path d="M19.7637 16.6058C20.746 16.6345 21.5532 17.2191 21.9982 18.1171C22.5691 19.27 24.2387 18.252 23.669 17.1004C23.2922 16.3573 22.7314 15.7328 22.0447 15.2915C21.358 14.8503 20.5705 14.6085 19.7637 14.5911C18.5188 14.5549 18.5199 16.5696 19.7637 16.6058Z" fill="#FF94C7"/>
<path d="M12.6201 3.18251C13.464 3.18251 14.1481 2.47008 14.1481 1.59126C14.1481 0.71243 13.464 0 12.6201 0C11.7762 0 11.092 0.71243 11.092 1.59126C11.092 2.47008 11.7762 3.18251 12.6201 3.18251Z" fill="#FF94C7"/>
<path d="M3.21798 9.99219C4.06189 9.99219 4.74601 9.27976 4.74601 8.40093C4.74601 7.52211 4.06189 6.80968 3.21798 6.80968C2.37407 6.80968 1.68994 7.52211 1.68994 8.40093C1.68994 9.27976 2.37407 9.99219 3.21798 9.99219Z" fill="#E50394"/>
</svg>
